<svg xmlns="http://www.w3.org/2000/svg" width="32" height="32" fill="currentColor" class="i i-circle-wrench-list" viewBox="0 0 16 16">
<path d="m8 0a8 8 0 0 0-8 8 8 8 0 0 0 8 8 8 8 0 0 0 8-8 8 8 0 0 0-8-8zm0 1a7 7 0 0 1 7 7 7 7 0 0 1-7 7 7 7 0 0 1-7-7 7 7 0 0 1 7-7zm-3.1875 3-0.32617 0.5332a0.9 0.95751 0 0 1 0.41406 0.80664 0.9 0.95751 0 0 1-0.90039 0.95898 0.9 0.95751 0 0 1-0.90039-0.95898 0.9 0.95751 0 0 1 0.38672-0.7832l-0.32617-0.5332a1.5 1.5958 0 0 0-0.66016 1.3164 1.5 1.5958 0 0 0 0.90039 1.4609v0.69531 1.5039 2.5039c0 0.27538 0.26721 0.49609 0.59961 0.49609s0.59961-0.22072 0.59961-0.49609v-2.5039-1.5039-0.69531a1.5 1.5958 0 0 0 0.90039-1.4609 1.5 1.5958 0 0 0-0.6875-1.3398zm2.6875 0c-0.554 0-1 0.446-1 1s0.446 1 1 1h5c0.554 0 1-0.446 1-1s-0.446-1-1-1h-5zm0 3c-0.554 0-1 0.446-1 1s0.446 1 1 1h5c0.554 0 1-0.446 1-1s-0.446-1-1-1h-5zm0 3c-0.554 0-1 0.446-1 1s0.446 1 1 1h5c0.554 0 1-0.446 1-1s-0.446-1-1-1h-5z"/>
</svg>
