<svg xmlns="http://www.w3.org/2000/svg" width="32" height="32" fill="currentColor" class="i i-circle-cross" viewBox="0 0 16 16">
<path d="m8 0a8 8 0 0 0-8 8 8 8 0 0 0 8 8 8 8 0 0 0 8-8 8 8 0 0 0-8-8zm0 1a7 7 0 0 1 7 7 7 7 0 0 1-7 7 7 7 0 0 1-7-7 7 7 0 0 1 7-7zm-2.8281 3.1699c-0.25562 0-0.51116 0.099053-0.70703 0.29492-0.39174 0.39174-0.39174 1.0223 0 1.4141l2.1211 2.1211-2.1211 2.1211c-0.39174 0.39174-0.39174 1.0223 0 1.4141 0.39174 0.39174 1.0223 0.39174 1.4141 0l2.1211-2.1211 2.1211 2.1211c0.39174 0.39174 1.0223 0.39174 1.4141 0s0.39174-1.0223 0-1.4141l-2.1211-2.1211 2.1211-2.1211c0.39174-0.39174 0.39174-1.0223 0-1.4141s-1.0223-0.39174-1.4141 0l-2.1211 2.1211-2.1211-2.1211c-0.19587-0.19587-0.45141-0.29492-0.70703-0.29492z"/>
</svg>
