<svg xmlns="http://www.w3.org/2000/svg" width="32" height="32" fill="currentColor" class="i i-circle-trash" viewBox="0 0 16 16">
<path d="m8 0a8 8 0 0 0-8 8 8 8 0 0 0 8 8 8 8 0 0 0 8-8 8 8 0 0 0-8-8zm0 1a7 7 0 0 1 7 7 7 7 0 0 1-7 7 7 7 0 0 1-7-7 7 7 0 0 1 7-7zm-2 2c-1.108 0-2 0.892-2 2h8c0-1.108-0.892-2-2-2h-4zm-2 2.5v0.34961 5.1504c0 1.108 0.892 2 2 2h4c1.108 0 2-0.892 2-2v-5.1504-0.34961h-8zm0.50977 0.59961h0.98047c0.0063941 0.03203 0.0097656 0.065644 0.0097656 0.099609v5c0 0.277-0.223 0.5-0.5 0.5s-0.5-0.223-0.5-0.5v-5c0-0.033965 0.0033715-0.06758 0.0097656-0.099609zm2 0h0.98047c0.0063941 0.03203 0.0097656 0.065644 0.0097656 0.099609v5c0 0.277-0.223 0.5-0.5 0.5s-0.5-0.223-0.5-0.5v-5c0-0.033965 0.0033715-0.06758 0.0097656-0.099609zm2 0h0.98047c0.0063941 0.03203 0.0097656 0.065644 0.0097656 0.099609v5c0 0.277-0.223 0.5-0.5 0.5s-0.5-0.223-0.5-0.5v-5c0-0.033965 0.0033715-0.06758 0.0097656-0.099609zm2 0h0.98047c0.006395 0.03203 0.009766 0.065644 0.009766 0.099609v5c0 0.277-0.223 0.5-0.5 0.5s-0.5-0.223-0.5-0.5v-5c0-0.033965 0.003371-0.06758 0.009766-0.099609z"/>
</svg>
