<svg xmlns="http://www.w3.org/2000/svg" width="32" height="32" fill="currentColor" class="i i-circle-logout" viewBox="0 0 16 16">
<path d="m8 0a8 8 0 0 0-8 8 8 8 0 0 0 8 8 8 8 0 0 0 7.0156-4.1738l-0.007813-0.00586a0.5 0.5 0 0 0 0.11719-0.32031 0.5 0.5 0 0 0-0.5-0.5 0.5 0.5 0 0 0-0.46875 0.33008 0.5 0.5 0 0 0-0.001953 0.001953 7 7 0 0 1-6.1543 3.668 7 7 0 0 1-7-7 7 7 0 0 1 7-7 7 7 0 0 1 6.1562 3.6719 0.5 0.5 0 0 0 0.46875 0.32812 0.5 0.5 0 0 0 0.5-0.5 0.5 0.5 0 0 0-0.11719-0.32031l0.015626-0.0097656a8 8 0 0 0-7.0234-4.1699zm5.3809 5.5c-0.12781 0-0.25558 0.04855-0.35352 0.14648-0.19587 0.19587-0.19587 0.51116 0 0.70703l1.2676 1.2676h-5.793c-0.277 7e-7 -0.50195 0.223-0.50195 0.5s0.22495 0.50195 0.50195 0.50195l5.793-0.0019531-1.2676 1.2676c-0.19587 0.19587-0.19587 0.51116 0 0.70703 0.19587 0.19587 0.51116 0.19587 0.70703 0l2.1211-2.1211c0.02311-0.023102 0.042887-0.048182 0.060547-0.074219 0.01827-0.026941 0.032491-0.054754 0.044922-0.083984 0.0043-0.010012 0.008168-0.02104 0.011718-0.03125 0.0018-0.00525 0.006213-0.0083378 0.007813-0.013672 7e-4 -0.00224-6.86e-4 -0.0055625 0-0.0078125 4e-3 -0.013548 0.008869-0.027008 0.011719-0.041016 3.6e-4 -0.0017499-3.43e-4 -0.0041093 0-0.0058593 6.07e-4 -0.00319 0.001379-0.0065456 0.001953-0.0097657 0.0049-0.028344 0.007812-0.057256 0.007812-0.085937 1e-6 -0.028682-0.002812-0.05564-0.007812-0.083984-5.6e-4 -0.00323-0.001312-0.0065456-0.001953-0.0097656-3.49e-4 -0.0018 3.65e-4 -0.0040694 0-0.0058594-0.002901-0.013965-0.007669-0.027287-0.011719-0.041016-0.0022-0.0075901-0.005213-0.016007-0.007813-0.023438-0.0036-0.010212-0.007468-0.019287-0.011718-0.029297-0.012431-0.029228-0.026662-0.057042-0.044922-0.083984-0.0083-0.012241-0.015891-0.027424-0.025391-0.039062-7.9e-4 -9.708e-4 -0.003106-9.931e-4 -0.003906-0.0019531-0.01-0.012051-0.01995-0.023854-0.03125-0.035156l-2.1211-2.1211c-0.097934-0.097934-0.22571-0.14648-0.35352-0.14648z"/>
</svg>
