<svg xmlns="http://www.w3.org/2000/svg" width="32" height="32" fill="currentColor" class="i i-circle-check" viewBox="0 0 16 16">
<path d="m8 0a8 8 0 0 0-8 8 8 8 0 0 0 8 8 8 8 0 0 0 8-8 8 8 0 0 0-8-8zm0 1a7 7 0 0 1 7 7 7 7 0 0 1-7 7 7 7 0 0 1-7-7 7 7 0 0 1 7-7zm2.7773 3.0098c-0.36504 0.00871-0.73302 0.22462-0.94727 0.5957l-2.7441 4.752-0.81641-1.0469c-0.4261-0.54589-1.1219-0.71003-1.5586-0.36914-0.43671 0.34088-0.44564 1.0537-0.019531 1.5996l1.5391 1.9707c0.4261 0.54588 1.1199 0.71198 1.5566 0.37109 0.018073-0.014098 0.03613-0.029581 0.052734-0.044921 0.13554-0.09786 0.25608-0.22811 0.34766-0.38672l3.375-5.8457c0.31163-0.53975 0.17509-1.1976-0.30469-1.4746-0.14993-0.086562-0.31454-0.12506-0.48047-0.12109z"/>
</svg>
